<svg xmlns="http://www.w3.org/2000/svg" xmlns:xlink="http://www.w3.org/1999/xlink" viewBox="0 0 610 437"><defs><style>.cls-1,.cls-2{fill:none;}.cls-1{clip-rule:evenodd;}.cls-3{clip-path:url(#clip-path);}.cls-4{clip-path:url(#clip-path-2);}.cls-5,.cls-8{fill:#00bda6;}.cls-5{opacity:0.1;}.cls-6{clip-path:url(#clip-path-3);}.cls-7{clip-path:url(#clip-path-4);}.cls-8{opacity:0.5;}.cls-9{clip-path:url(#clip-path-5);}.cls-10{clip-path:url(#clip-path-7);}.cls-11{fill:#fff;}</style><clipPath id="clip-path" transform="translate(-747.96 -124.31)"><path class="cls-1" d="M761,129.31h584a8,8,0,0,1,8,8v22H753v-22A8,8,0,0,1,761,129.31Z"/></clipPath><clipPath id="clip-path-2" transform="translate(-747.96 -124.31)"><rect class="cls-2" x="733.96" y="5.31" width="1238" height="3170"/></clipPath><clipPath id="clip-path-3" transform="translate(-747.96 -124.31)"><circle class="cls-2" cx="772.96" cy="144.31" r="5" transform="translate(445.49 859.19) rotate(-75.96)"/></clipPath><clipPath id="clip-path-4" transform="translate(-747.96 -124.31)"><rect class="cls-2" x="-600.06" y="1068.81" width="3170" height="1238" transform="translate(-891.36 2233.98) rotate(-75.96)"/></clipPath><clipPath id="clip-path-5" transform="translate(-747.96 -124.31)"><circle class="cls-2" cx="787.96" cy="144.31" r="5"/></clipPath><clipPath id="clip-path-7" transform="translate(-747.96 -124.31)"><circle class="cls-2" cx="802.96" cy="144.31" r="5"/></clipPath></defs><title>Asset 1</title><g id="Layer_2" data-name="Layer 2"><g id="Layer_1-2" data-name="Layer 1"><g class="cls-3"><g class="cls-4"><rect class="cls-5" width="610" height="40"/></g></g><g class="cls-6"><g class="cls-7"><rect class="cls-8" x="762.96" y="134.31" width="20" height="20" transform="translate(-302.47 734.88) rotate(-75.96)"/></g></g><g class="cls-9"><g class="cls-4"><rect class="cls-8" x="30" y="10" width="20" height="20"/></g></g><g class="cls-10"><g class="cls-4"><rect class="cls-8" x="45" y="10" width="20" height="20"/></g></g><rect class="cls-11" x="5" y="37" width="600" height="400"/></g></g></svg>